<svg width="533" height="35" viewBox="0 0 533 35" fill="none" xmlns="http://www.w3.org/2000/svg">
<path d="M16.3006 34.1992L8.55059 19.2492H15.6006L23.8006 34.1992H16.3006ZM0.000585988 34.1992V0.799217H12.3506C14.5173 0.799217 16.4339 1.21588 18.1006 2.04922C19.8006 2.88255 21.1173 4.09922 22.0506 5.69922C22.9839 7.29922 23.4506 9.19922 23.4506 11.3992C23.4506 13.5992 22.9839 15.4992 22.0506 17.0992C21.1173 18.6992 19.8006 19.9159 18.1006 20.7492C16.4339 21.5826 14.5173 21.9992 12.3506 21.9992H6.75059V34.1992H0.000585988ZM12.0506 15.6992C13.3839 15.6992 14.4506 15.3326 15.2506 14.5992C16.0506 13.8326 16.4506 12.7659 16.4506 11.3992C16.4506 10.0326 16.0506 8.96588 15.2506 8.19922C14.4506 7.43255 13.3839 7.04922 12.0506 7.04922H6.75059V15.6992H12.0506ZM48.1174 0.799217V7.04922H35.2174V14.0992H47.6174V20.3492H35.2174V27.9492H48.1174V34.1992H28.4674V0.799217H48.1174ZM66.5209 34.9992C63.3542 34.9992 60.6709 34.2992 58.4709 32.8992C56.3042 31.4659 54.6709 29.4492 53.5709 26.8492C52.4709 24.2159 51.9209 21.0992 51.9209 17.4992C51.9209 13.9326 52.4876 10.8326 53.6209 8.19922C54.7542 5.56588 56.4042 3.54922 58.5709 2.14922C60.7376 0.715884 63.3376 -0.000782013 66.3709 -0.000782013C68.7376 -0.000782013 70.8542 0.449218 72.7209 1.34922C74.5876 2.21588 76.0876 3.44922 77.2209 5.04922C78.3542 6.64922 79.0876 8.49922 79.4209 10.5992H72.2209C71.8542 9.33255 71.1542 8.33255 70.1209 7.59922C69.0876 6.86588 67.8376 6.49922 66.3709 6.49922C64.7709 6.49922 63.4209 6.91588 62.3209 7.74922C61.2209 8.58255 60.3876 9.81588 59.8209 11.4492C59.2542 13.0826 58.9709 15.0992 58.9709 17.4992C58.9709 19.8992 59.2542 21.9159 59.8209 23.5492C60.3876 25.1826 61.2209 26.4159 62.3209 27.2492C63.4542 28.0826 64.8542 28.4992 66.5209 28.4992C67.9209 28.4992 69.1042 28.2326 70.0709 27.6992C71.0709 27.1659 71.8209 26.2992 72.3209 25.0992C72.8542 23.8992 73.1209 22.3159 73.1209 20.3492L73.6709 22.3992H66.9209V16.5992H79.9209V18.4492C79.9209 22.0826 79.3876 25.1326 78.3209 27.5992C77.2876 30.0659 75.7709 31.9159 73.7709 33.1492C71.7709 34.3826 69.3542 34.9992 66.5209 34.9992ZM84.815 34.1992V0.799217H91.565V34.1992H84.815ZM107.802 34.9992C104.335 34.9992 101.602 34.1159 99.6021 32.3492C97.6021 30.5826 96.4521 28.0492 96.1521 24.7492H102.902C103.169 26.0826 103.719 27.0659 104.552 27.6992C105.419 28.3326 106.502 28.6492 107.802 28.6492C109.169 28.6492 110.219 28.3159 110.952 27.6492C111.719 26.9492 112.102 26.0326 112.102 24.8992C112.102 23.8326 111.769 22.9992 111.102 22.3992C110.469 21.7992 109.469 21.3159 108.102 20.9492L104.252 19.8492C102.552 19.3826 101.135 18.6826 100.002 17.7492C98.9021 16.7826 98.0855 15.6826 97.5521 14.4492C97.0521 13.2159 96.8021 11.8826 96.8021 10.4492C96.8021 8.38255 97.2688 6.56588 98.2021 4.99922C99.1688 3.39922 100.485 2.16588 102.152 1.29922C103.819 0.432551 105.685 -0.000782013 107.752 -0.000782013C111.052 -0.000782013 113.635 0.899217 115.502 2.69922C117.369 4.46588 118.469 6.93255 118.802 10.0992H112.202C112.002 8.83255 111.535 7.89922 110.802 7.29922C110.069 6.66588 109.052 6.34922 107.752 6.34922C106.585 6.34922 105.619 6.68255 104.852 7.34922C104.085 8.01588 103.702 8.89922 103.702 9.99922C103.702 11.0326 104.002 11.8159 104.602 12.3492C105.202 12.8826 106.035 13.2992 107.102 13.5992L110.952 14.6492C113.452 15.3159 115.419 16.5159 116.852 18.2492C118.285 19.9826 119.002 22.0659 119.002 24.4992C119.002 26.6659 118.502 28.5492 117.502 30.1492C116.535 31.7159 115.202 32.9159 113.502 33.7492C111.802 34.5826 109.902 34.9992 107.802 34.9992ZM120.745 7.04922V0.799217H144.595V7.04922H136.045V34.1992H129.295V7.04922H120.745ZM164.787 34.1992L157.037 19.2492H164.087L172.287 34.1992H164.787ZM148.487 34.1992V0.799217H160.837C163.004 0.799217 164.92 1.21588 166.587 2.04922C168.287 2.88255 169.604 4.09922 170.537 5.69922C171.47 7.29922 171.937 9.19922 171.937 11.3992C171.937 13.5992 171.47 15.4992 170.537 17.0992C169.604 18.6992 168.287 19.9159 166.587 20.7492C164.92 21.5826 163.004 21.9992 160.837 21.9992H155.237V34.1992H148.487ZM160.537 15.6992C161.87 15.6992 162.937 15.3326 163.737 14.5992C164.537 13.8326 164.937 12.7659 164.937 11.3992C164.937 10.0326 164.537 8.96588 163.737 8.19922C162.937 7.43255 161.87 7.04922 160.537 7.04922H155.237V15.6992H160.537ZM195.304 27.6992H182.254L184.354 21.4492H193.204L195.304 27.6992ZM188.904 10.5492H188.604L180.854 34.1992H174.004L185.404 0.799217H192.154L203.554 34.1992H196.704L188.904 10.5492ZM200.774 7.04922V0.799217H224.624V7.04922H216.074V34.1992H209.324V7.04922H200.774ZM228.516 34.1992V0.799217H235.266V34.1992H228.516ZM254.353 34.9992C251.353 34.9992 248.787 34.2992 246.653 32.8992C244.553 31.4992 242.953 29.4826 241.853 26.8492C240.753 24.2159 240.203 21.0992 240.203 17.4992C240.203 13.8992 240.753 10.7826 241.853 8.14922C242.953 5.51588 244.553 3.49922 246.653 2.09922C248.787 0.699218 251.353 -0.000782013 254.353 -0.000782013C257.353 -0.000782013 259.903 0.699218 262.003 2.09922C264.137 3.49922 265.753 5.51588 266.853 8.14922C267.953 10.7826 268.503 13.8992 268.503 17.4992C268.503 21.0992 267.953 24.2159 266.853 26.8492C265.753 29.4826 264.137 31.4992 262.003 32.8992C259.903 34.2992 257.353 34.9992 254.353 34.9992ZM254.353 28.4992C255.92 28.4992 257.22 28.0992 258.253 27.2992C259.32 26.4659 260.12 25.2326 260.653 23.5992C261.22 21.9659 261.503 19.9326 261.503 17.4992C261.503 15.0659 261.22 13.0326 260.653 11.3992C260.12 9.76589 259.32 8.54922 258.253 7.74922C257.22 6.91588 255.92 6.49922 254.353 6.49922C252.787 6.49922 251.47 6.91588 250.403 7.74922C249.37 8.54922 248.57 9.76589 248.003 11.3992C247.47 13.0326 247.203 15.0659 247.203 17.4992C247.203 19.9326 247.47 21.9659 248.003 23.5992C248.57 25.2326 249.37 26.4659 250.403 27.2992C251.47 28.0992 252.787 28.4992 254.353 28.4992ZM292.588 0.799217H299.288V34.1992H292.438L280.488 13.2992H280.188V34.1992H273.438V0.799217H280.288L292.288 21.7992H292.588V0.799217ZM331.047 34.1992L323.297 19.2492H330.347L338.547 34.1992H331.047ZM314.747 34.1992V0.799217H327.097C329.263 0.799217 331.18 1.21588 332.847 2.04922C334.547 2.88255 335.863 4.09922 336.797 5.69922C337.73 7.29922 338.197 9.19922 338.197 11.3992C338.197 13.5992 337.73 15.4992 336.797 17.0992C335.863 18.6992 334.547 19.9159 332.847 20.7492C331.18 21.5826 329.263 21.9992 327.097 21.9992H321.497V34.1992H314.747ZM326.797 15.6992C328.13 15.6992 329.197 15.3326 329.997 14.5992C330.797 13.8326 331.197 12.7659 331.197 11.3992C331.197 10.0326 330.797 8.96588 329.997 8.19922C329.197 7.43255 328.13 7.04922 326.797 7.04922H321.497V15.6992H326.797ZM362.863 0.799217V7.04922H349.963V14.0992H362.363V20.3492H349.963V27.9492H362.863V34.1992H343.213V0.799217H362.863ZM394.71 0.799217H400.96V34.1992H394.21V15.3492H393.91L385.71 30.0492H383.56L375.41 15.3492H375.11V34.1992H368.36V0.799217H374.56L384.51 19.2992H384.81L394.71 0.799217ZM407.276 34.1992V0.799217H414.026V34.1992H407.276ZM439.463 0.799217H446.163V34.1992H439.313L427.363 13.2992H427.063V34.1992H420.313V0.799217H427.163L439.163 21.7992H439.463V0.799217ZM452.442 34.1992V0.799217H464.042C466.942 0.799217 469.459 1.44922 471.592 2.74922C473.725 4.01588 475.359 5.89922 476.492 8.39922C477.625 10.8992 478.192 13.9326 478.192 17.4992C478.192 21.0659 477.625 24.0992 476.492 26.5992C475.359 29.0992 473.725 30.9992 471.592 32.2992C469.459 33.5659 466.942 34.1992 464.042 34.1992H452.442ZM463.542 27.9492C465.975 27.9492 467.859 27.0992 469.192 25.3992C470.525 23.6992 471.192 21.0659 471.192 17.4992C471.192 13.9326 470.525 11.2992 469.192 9.59922C467.859 7.89922 465.975 7.04922 463.542 7.04922H459.192V27.9492H463.542ZM502.805 0.799217V7.04922H489.905V14.0992H502.305V20.3492H489.905V27.9492H502.805V34.1992H483.155V0.799217H502.805ZM524.601 34.1992L516.851 19.2492H523.901L532.101 34.1992H524.601ZM508.301 34.1992V0.799217H520.651C522.818 0.799217 524.735 1.21588 526.401 2.04922C528.101 2.88255 529.418 4.09922 530.351 5.69922C531.285 7.29922 531.751 9.19922 531.751 11.3992C531.751 13.5992 531.285 15.4992 530.351 17.0992C529.418 18.6992 528.101 19.9159 526.401 20.7492C524.735 21.5826 522.818 21.9992 520.651 21.9992H515.051V34.1992H508.301ZM520.351 15.6992C521.685 15.6992 522.751 15.3326 523.551 14.5992C524.351 13.8326 524.751 12.7659 524.751 11.3992C524.751 10.0326 524.351 8.96588 523.551 8.19922C522.751 7.43255 521.685 7.04922 520.351 7.04922H515.051V15.6992H520.351Z" fill="#E20074"/>
</svg>
